<svg width="2123" height="1999" viewBox="0 0 2123 1999" fill="none" xmlns="http://www.w3.org/2000/svg">
<g id="Desktop - 2">
<rect width="2123" height="1999" fill="white"/>
<g id="coding">
<g id="leaf">
<path id="Vector" d="M481.134 1393.15C481.124 1393.2 481.112 1393.26 481.1 1393.31C480.998 1393.78 480.841 1394.48 480.626 1395.38C480.196 1397.18 479.531 1399.8 478.595 1403.05C476.721 1409.56 473.761 1418.61 469.413 1428.79C460.713 1449.15 446.475 1473.99 424.313 1491.97C402.155 1509.96 376.239 1517.72 355.842 1520.98C345.647 1522.61 336.838 1523.11 330.58 1523.2C327.451 1523.25 324.961 1523.2 323.254 1523.13C322.401 1523.1 321.743 1523.07 321.3 1523.04C321.264 1523.04 321.23 1523.03 321.196 1523.03C321.207 1522.98 321.219 1522.93 321.231 1522.87C321.333 1522.4 321.49 1521.71 321.705 1520.8C322.135 1519 322.799 1516.39 323.736 1513.13C325.609 1506.63 328.57 1497.58 332.918 1487.4C341.618 1467.03 355.856 1442.2 378.018 1424.21C400.176 1406.23 426.092 1398.47 446.488 1395.21C456.684 1393.58 465.493 1393.08 471.751 1392.98C474.879 1392.93 477.37 1392.99 479.077 1393.05C479.93 1393.08 480.587 1393.12 481.031 1393.15C481.067 1393.15 481.101 1393.15 481.134 1393.15Z" fill="#F1F1F1" stroke="black"/>
<path id="Vector_2" d="M395.773 1440.6C385.118 1468.38 366.441 1489.45 350.413 1503.57C342.4 1510.63 335.055 1515.95 329.714 1519.51C327.044 1521.28 324.875 1522.62 323.376 1523.51C322.626 1523.95 322.043 1524.29 321.649 1524.51C321.629 1524.52 321.61 1524.53 321.591 1524.54C321.582 1524.51 321.572 1524.48 321.561 1524.44C321.429 1523.98 321.238 1523.29 321.001 1522.4C320.528 1520.61 319.876 1517.99 319.159 1514.67C317.726 1508.03 316.037 1498.6 315.015 1487.43C312.97 1465.08 313.597 1435.8 324.253 1408.02C334.908 1380.24 353.585 1359.18 369.613 1345.05C377.626 1337.99 384.971 1332.67 390.312 1329.12C392.982 1327.34 395.151 1326 396.65 1325.11C397.4 1324.67 397.983 1324.33 398.377 1324.11C398.397 1324.1 398.416 1324.09 398.435 1324.08C398.444 1324.11 398.454 1324.15 398.465 1324.18C398.597 1324.65 398.788 1325.33 399.025 1326.23C399.498 1328.02 400.15 1330.63 400.867 1333.95C402.3 1340.59 403.989 1350.02 405.011 1361.19C407.056 1383.54 406.429 1412.82 395.773 1440.6Z" fill="#F1F1F1" stroke="black"/>
</g>
<g id="dhua">
<path id="Vector_3" d="M1685.8 1111.92L1682.25 1167.03C1680.17 1199.37 1681.08 1231.85 1684.96 1263.98C1671.01 1208.18 1667.5 1153.96 1685.8 1111.92Z" fill="#CACACA" stroke="black"/>
<path id="Vector_4" d="M1700.19 1219.13C1699.28 1236.7 1699.56 1254.31 1701.04 1271.82C1695.3 1241.17 1694.12 1211.62 1701.8 1188.16L1700.19 1219.13Z" fill="#CACACA" stroke="black"/>
</g>
<g id="tea">
<path id="Vector_5" d="M1638.96 1351.24L1638.96 1351.24L1638.96 1510.03C1638.97 1511.45 1639.49 1512.81 1640.4 1513.8C1641.31 1514.79 1642.53 1515.34 1643.8 1515.34L1752.29 1515.34C1752.29 1515.34 1752.29 1515.34 1752.29 1515.34C1753.56 1515.33 1754.78 1514.78 1755.69 1513.79C1756.6 1512.8 1757.12 1511.45 1757.13 1510.03V1351.25L1638.96 1351.24ZM1638.96 1351.24C1638.96 1350.61 1638.73 1350 1638.31 1349.54C1637.89 1349.08 1637.31 1348.81 1636.69 1348.81H1636.69H1626.02C1624.75 1348.81 1623.52 1348.26 1622.61 1347.27C1621.7 1346.27 1621.18 1344.92 1621.18 1343.5L1638.96 1351.24ZM1773.14 1343.5C1773.14 1343.5 1773.14 1343.5 1773.14 1343.5C1773.13 1344.92 1772.61 1346.27 1771.7 1347.26C1770.79 1348.25 1769.57 1348.8 1768.3 1348.81H1759.41H1759.41V1349.31L1773.64 1343.5L1773.14 1343.5ZM1773.14 1343.5V1324.13M1773.14 1343.5V1324.13M1773.14 1324.13L1773.14 1324.13L1773.14 1324.13Z" fill="#F2F2F2" stroke="black"/>
<path id="Vector_6" d="M1639.12 1353.87H1757.29V1358.68H1639.12V1353.87Z" fill="#E6E6E6" stroke="black"/>
<path id="Vector_7" d="M1757.13 1398.28V1438.53C1717.58 1456.27 1677.61 1456.46 1637.19 1438.53V1398.28C1676.11 1384.13 1718.2 1384.13 1757.13 1398.28Z" fill="#E6E6E6" stroke="black"/>
</g>
<g id="body">
<path id="Vector_8" d="M1338.76 941.799L1338.78 941.809L1338.8 941.818C1342.86 943.513 1347.12 944.588 1351.46 945.011C1373 949.209 1389.06 969.421 1399.23 990.801C1414.68 1023.41 1420.39 1060.31 1425.93 1096.6L1425.93 1096.62L1425.9 1096.87L1425.78 1097.84C1425.67 1098.71 1425.52 1099.99 1425.31 1101.67C1424.91 1105.02 1424.32 1109.93 1423.57 1116.21C1422.06 1128.75 1419.93 1146.72 1417.42 1168.39C1412.38 1211.74 1405.8 1269.92 1399.61 1329.28C1393.42 1388.63 1387.63 1449.16 1384.16 1497.2C1382.42 1521.21 1381.27 1542.11 1380.94 1558.18C1380.78 1566.21 1380.82 1573.04 1381.1 1578.46C1381.35 1583.38 1381.8 1587.17 1382.49 1589.63L801.686 1571.51C799.46 1561.9 799.037 1543.17 800.154 1524.54C800.719 1515.12 801.677 1505.74 802.989 1497.61C804.303 1489.47 805.965 1482.62 807.926 1478.23L807.928 1478.22C809.616 1474.31 811.616 1470.56 813.648 1466.79L814 1466.14C815.914 1462.59 817.843 1459.02 819.533 1455.29C832.446 1427.09 830.678 1393.98 829.004 1362.63C828.969 1361.96 828.934 1361.3 828.898 1360.64C827.199 1328.66 826.723 1294.59 842.184 1267.54C844.178 1264.69 845.55 1261.39 846.199 1257.89L846.208 1257.84L846.207 1257.79C846.187 1254.4 845.383 1251.08 843.868 1248.11C828.011 1209.67 812.83 1171.2 797.646 1132.73L797.62 1132.66C782.464 1094.26 767.307 1055.85 751.478 1017.47C751.631 1016.9 751.783 1016.33 751.936 1015.76C754.677 1005.48 757.447 995.094 762.978 986.621C768.851 977.628 778.312 970.586 788.396 971.048L788.399 971.048C788.555 971.055 788.729 971.024 788.895 970.983C789.07 970.94 789.272 970.877 789.498 970.797C789.951 970.636 790.527 970.398 791.214 970.091C792.59 969.476 794.439 968.571 796.688 967.42C801.189 965.117 807.317 961.817 814.512 957.854C828.905 949.929 847.586 939.345 866.108 928.766C881.351 920.06 896.488 911.356 909.04 904.138C911.742 902.585 914.323 901.101 916.76 899.7C923.642 895.744 929.372 892.456 933.396 890.166C935.408 889.021 936.992 888.127 938.079 887.524C938.623 887.223 939.04 886.996 939.323 886.848C939.385 886.815 939.44 886.787 939.488 886.762L939.539 886.8L939.828 886.606C954.719 876.591 971.795 867.45 985.155 860.809C991.833 857.49 997.58 854.797 1001.66 852.934C1003.7 852.002 1005.32 851.279 1006.43 850.788C1006.98 850.542 1007.41 850.355 1007.7 850.229C1007.84 850.168 1007.95 850.121 1008.02 850.089C1078.14 856.053 1122.2 856.761 1149.91 856.004C1163.78 855.625 1173.55 854.88 1180.44 854.243C1182.52 854.051 1184.34 853.869 1185.93 853.709C1186.97 853.605 1187.91 853.51 1188.76 853.43C1190.92 853.225 1192.48 853.11 1193.62 853.138V853.138H1193.63C1195.85 853.138 1198.67 854.022 1201.88 855.523C1205.08 857.018 1208.61 859.099 1212.22 861.438C1216.68 864.321 1221.23 867.566 1225.45 870.571C1228.09 872.456 1230.6 874.246 1232.87 875.793C1239.7 880.445 1264.58 896.109 1288.53 911.02C1312.47 925.926 1335.55 940.113 1338.76 941.799Z" fill="#6C63FF" stroke="black"/>
</g>
<g id="left">
<path id="left_2" d="M843.745 1434.48C843.681 1434.97 843.682 1434.97 843.683 1434.97L843.69 1434.98L843.716 1434.98L843.821 1434.99L844.235 1435.05C844.384 1435.07 844.564 1435.09 844.772 1435.12C845.072 1435.15 845.433 1435.2 845.851 1435.26C847.267 1435.44 849.346 1435.71 851.996 1436.06C857.297 1436.77 864.881 1437.78 874.02 1439.03C892.297 1441.52 916.786 1444.96 941.64 1448.71C966.494 1452.46 991.707 1456.53 1011.43 1460.3C1021.3 1462.19 1029.78 1464 1036.16 1465.65C1039.35 1466.48 1042 1467.27 1044.03 1468.01C1046.09 1468.75 1047.44 1469.42 1048.09 1469.99C1053.83 1475.02 1057.99 1482.59 1059.62 1490.46C1061.24 1498.34 1060.31 1506.45 1055.94 1512.63C1055.46 1513.31 1054.46 1514.03 1052.9 1514.77C1051.36 1515.49 1049.33 1516.2 1046.86 1516.9C1041.93 1518.29 1035.28 1519.59 1027.36 1520.81C1011.51 1523.26 990.617 1525.37 968.204 1527.2C934.419 1529.96 897.211 1532.06 868.689 1533.68C859.37 1534.2 850.978 1534.68 843.935 1535.11C806.48 1537.41 768.608 1537.74 731.968 1529.3L731.906 1529.29L731.842 1529.29C728.915 1529.37 726.069 1528.18 723.932 1525.98C721.792 1523.77 720.539 1520.71 720.458 1517.49L720.457 1517.45L720.452 1517.42C716.744 1493.86 713.756 1470.27 711.756 1446.49L711.756 1446.49C710.734 1434.67 709.981 1422.84 709.226 1410.98L709.144 1409.69L709.144 1409.69L700.804 1279.29L700.803 1279.28L700.802 1279.27C699.877 1270.13 699.993 1260.91 701.147 1251.81C702.23 1245.63 704.45 1237.32 707.841 1229.86C711.245 1222.37 715.78 1215.86 721.433 1213.15C728.675 1209.77 739.204 1209.1 750.017 1209.23C754.639 1209.29 759.293 1209.49 763.744 1209.68C764.488 1209.71 765.228 1209.75 765.96 1209.78C771.062 1209.99 775.839 1210.16 779.886 1210.03C801.996 1209.47 825.241 1212.03 843.268 1225.73C865.184 1242.42 875.315 1273.1 875.141 1302.37C874.968 1331.63 865.941 1359.86 856.247 1387.26L856.246 1387.27C855.84 1388.43 855.431 1389.59 855.023 1390.75C850.015 1405.02 845 1419.31 843.248 1434.42L843.192 1434.91L843.681 1434.97L843.745 1434.48Z" fill="#FBBEBE" stroke="black"/>
<path id="pathf" d="M743.294 1031.25L743.3 1031.24L743.304 1031.22C744.706 1027.11 746.865 1023.35 749.646 1020.18C751.877 1017.71 754.792 1016.12 757.895 1014.65C758.513 1014.36 759.14 1014.07 759.769 1013.78C762.276 1012.63 764.833 1011.45 767.089 1009.88L767.096 1009.88L767.103 1009.87C768.61 1008.75 769.81 1007.32 770.951 1005.96C771.238 1005.62 771.52 1005.28 771.803 1004.96C773.235 1003.31 774.701 1001.88 776.779 1001.15C779.666 1000.14 783.36 1000 787.512 1000.42C791.657 1000.85 796.213 1001.82 800.799 1003.01C804.726 1004.03 808.662 1005.2 812.373 1006.3C812.996 1006.48 813.612 1006.67 814.221 1006.85C818.45 1008.1 822.329 1009.21 825.447 1009.82L825.458 1009.82L825.47 1009.83C829.852 1010.47 834.144 1011.71 838.246 1013.51C848.069 1018.35 854.363 1029.24 858.152 1040.45L858.152 1040.45C867.63 1068.43 864.646 1098.26 860.818 1128.48C860.555 1130.56 860.287 1132.64 860.02 1134.72C856.403 1162.86 852.755 1191.24 858.572 1218.51L858.572 1218.51C859.985 1225.11 861.937 1231.53 863.962 1237.92C864.307 1239.01 864.654 1240.1 865.001 1241.18C866.629 1246.28 868.255 1251.37 869.648 1256.54C846.471 1257.32 823.569 1252.16 800.621 1246.99C799.636 1246.77 798.651 1246.55 797.665 1246.33C773.546 1240.91 749.365 1235.77 724.885 1237.87C714.871 1238.71 703.399 1241.83 698.326 1251.46C698.221 1251.36 698.117 1251.27 698.013 1251.18C696.454 1249.74 695.167 1247.99 694.227 1246.01C693.287 1244.03 692.713 1241.87 692.54 1239.65C692.367 1237.43 692.597 1235.19 693.218 1233.06C693.836 1230.95 694.827 1228.99 696.134 1227.3C697.702 1225.75 699.141 1224.05 700.433 1222.23L700.458 1222.2L700.477 1222.16C701.809 1219.37 702.474 1216.27 702.412 1213.13C706.015 1150.34 719.859 1088.75 743.294 1031.25Z" fill="#6C63FF" stroke="black"/>
</g>
<g id="right">
<path id="right_2" d="M1304.26 1434.48L1304.32 1434.97L1304.81 1434.91L1304.75 1434.42C1303 1419.31 1297.99 1405.02 1292.98 1390.75C1292.57 1389.59 1292.16 1388.43 1291.75 1387.27L1291.75 1387.26C1282.06 1359.86 1273.03 1331.63 1272.86 1302.37C1272.69 1273.1 1282.82 1242.42 1304.73 1225.73C1322.76 1212.03 1346 1209.47 1368.11 1210.03C1372.16 1210.16 1376.94 1209.99 1382.04 1209.78C1382.77 1209.75 1383.51 1209.71 1384.26 1209.68C1388.71 1209.49 1393.36 1209.29 1397.98 1209.23C1408.8 1209.1 1419.33 1209.77 1426.57 1213.15C1432.22 1215.86 1436.76 1222.37 1440.16 1229.86C1443.55 1237.32 1445.77 1245.63 1446.85 1251.81C1448.01 1260.91 1448.12 1270.13 1447.2 1279.27L1447.2 1279.28L1447.2 1279.29L1438.86 1409.69L1438.78 1410.98C1438.02 1422.84 1437.27 1434.66 1436.24 1446.49L1436.24 1446.49C1434.24 1470.27 1431.26 1493.86 1427.55 1517.42L1427.54 1517.45L1427.54 1517.49C1427.46 1520.71 1426.21 1523.77 1424.07 1525.98C1421.93 1528.18 1419.09 1529.37 1416.16 1529.29L1416.09 1529.29L1416.03 1529.3C1411.5 1530.35 1403.17 1531.07 1392.01 1531.51C1380.86 1531.95 1366.93 1532.1 1351.21 1532C1319.78 1531.8 1281.21 1530.61 1243.51 1528.77C1205.8 1526.92 1168.97 1524.41 1141.01 1521.58C1127.03 1520.16 1115.28 1518.66 1106.75 1517.13C1102.48 1516.36 1099.03 1515.58 1096.52 1514.81C1095.26 1514.42 1094.25 1514.03 1093.49 1513.66C1092.72 1513.27 1092.27 1512.92 1092.06 1512.63C1087.7 1506.45 1086.76 1498.33 1088.38 1490.46C1090.01 1482.59 1094.17 1475.02 1099.91 1469.99C1100.56 1469.42 1101.91 1468.75 1103.97 1468.01C1106 1467.27 1108.65 1466.48 1111.84 1465.65C1118.22 1464 1126.7 1462.19 1136.57 1460.3C1156.29 1456.53 1181.51 1452.46 1206.36 1448.71C1231.21 1444.96 1255.7 1441.52 1273.98 1439.03C1283.12 1437.78 1290.7 1436.77 1296 1436.06C1298.65 1435.71 1300.73 1435.44 1302.15 1435.26C1302.46 1435.22 1302.73 1435.18 1302.98 1435.15C1303.3 1435.11 1303.56 1435.07 1303.77 1435.05L1304.18 1434.99L1304.28 1434.98L1304.31 1434.98L1304.32 1434.97C1304.32 1434.97 1304.32 1434.97 1304.26 1434.48Z" fill="#FBBEBE" stroke="black"/>
<path id="pathd" d="M1380.9 1009.87L1380.91 1009.88L1380.91 1009.88C1383.17 1011.45 1385.73 1012.63 1388.23 1013.78C1388.86 1014.07 1389.49 1014.36 1390.11 1014.65C1393.21 1016.12 1396.12 1017.71 1398.36 1020.18C1401.14 1023.35 1403.3 1027.11 1404.7 1031.22L1404.7 1031.24L1404.71 1031.25C1428.14 1088.75 1441.99 1150.34 1445.59 1213.13C1445.53 1216.27 1446.19 1219.37 1447.52 1222.16L1447.54 1222.2L1447.57 1222.23C1448.86 1224.05 1450.3 1225.75 1451.87 1227.3C1453.17 1228.99 1454.17 1230.95 1454.78 1233.06C1455.4 1235.19 1455.63 1237.43 1455.46 1239.65C1455.29 1241.87 1454.71 1244.03 1453.77 1246.01C1452.83 1247.99 1451.55 1249.74 1449.99 1251.18C1449.88 1251.27 1449.78 1251.36 1449.68 1251.46C1444.6 1241.83 1433.13 1238.71 1423.12 1237.87C1398.64 1235.77 1374.46 1240.91 1350.34 1246.33C1349.35 1246.55 1348.37 1246.77 1347.38 1246.99C1324.43 1252.16 1301.53 1257.32 1278.35 1256.54C1279.75 1251.37 1281.37 1246.28 1283 1241.18C1283.35 1240.1 1283.69 1239.01 1284.04 1237.92C1286.06 1231.53 1288.02 1225.11 1289.43 1218.51L1289.43 1218.51C1295.25 1191.24 1291.6 1162.86 1287.98 1134.72C1287.71 1132.64 1287.45 1130.56 1287.18 1128.48C1283.36 1098.26 1280.37 1068.43 1289.85 1040.45L1289.85 1040.45C1293.64 1029.24 1299.93 1018.35 1309.76 1013.51C1313.86 1011.71 1318.15 1010.47 1322.53 1009.83L1322.54 1009.82L1322.56 1009.82C1325.67 1009.21 1329.55 1008.1 1333.78 1006.85C1334.39 1006.67 1335.01 1006.48 1335.63 1006.3C1339.34 1005.2 1343.28 1004.03 1347.2 1003.01C1351.79 1001.82 1356.34 1000.85 1360.49 1000.42C1364.64 1000 1368.34 1000.14 1371.22 1001.15C1373.3 1001.88 1374.77 1003.31 1376.2 1004.96C1376.48 1005.28 1376.76 1005.62 1377.05 1005.96C1378.19 1007.32 1379.39 1008.75 1380.9 1009.87Z" fill="#6C63FF" stroke="black"/>
</g>
<g id="laptop">
<path id="Vector_9" d="M1396.9 1594.88H799.257C792.426 1594.87 785.867 1591.91 781.023 1586.64C776.177 1581.37 773.445 1574.2 773.437 1566.73V1171.97C773.445 1164.49 776.177 1157.33 781.023 1152.06C785.867 1146.78 792.425 1143.82 799.256 1143.81H1396.9C1403.73 1143.82 1410.29 1146.78 1415.13 1152.06C1419.98 1157.33 1422.71 1164.49 1422.72 1171.97V1566.73C1422.71 1574.2 1419.98 1581.37 1415.13 1586.64C1410.29 1591.91 1403.73 1594.87 1396.9 1594.88Z" fill="#3F3D56" stroke="black"/>
</g>
<g id="table">
<path id="Vector_10" d="M191.034 1582.8V1582.3H190.534H72.5V1516.26H2075.5V1582.3H1957.51H1957.01V1582.8V1597.89H191.034V1582.8Z" fill="#F1F1F1" stroke="black"/>
</g>
<g id="asus">
<path id="Ellipse 277" d="M1170.86 1348.82C1170.86 1365.4 1160.78 1380.47 1144.36 1391.43C1127.94 1402.37 1105.23 1409.16 1080.12 1409.16C1055.02 1409.16 1032.31 1402.37 1015.89 1391.43C999.47 1380.47 989.391 1365.4 989.391 1348.82C989.391 1332.24 999.47 1317.17 1015.89 1306.22C1032.31 1295.27 1055.02 1288.48 1080.12 1288.48C1105.23 1288.48 1127.94 1295.27 1144.36 1306.22C1160.78 1317.17 1170.86 1332.24 1170.86 1348.82Z" fill="#C4C4C4" stroke="black"/>
<g id="ASUS">
<path d="M1054.75 1349.29H1044.03L1041.62 1355.97H1038.14L1047.91 1330.37H1050.87L1060.66 1355.97H1057.19L1054.75 1349.29ZM1045.05 1346.51H1053.75L1049.39 1334.54L1045.05 1346.51ZM1071.64 1344.56C1068.75 1343.73 1066.64 1342.71 1065.32 1341.5C1064 1340.28 1063.35 1338.78 1063.35 1337C1063.35 1334.98 1064.15 1333.32 1065.75 1332.01C1067.37 1330.68 1069.47 1330.02 1072.05 1330.02C1073.81 1330.02 1075.37 1330.36 1076.74 1331.04C1078.12 1331.72 1079.19 1332.66 1079.94 1333.85C1080.7 1335.05 1081.08 1336.35 1081.08 1337.77H1077.69C1077.69 1336.23 1077.2 1335.01 1076.21 1334.13C1075.23 1333.24 1073.84 1332.8 1072.05 1332.8C1070.38 1332.8 1069.08 1333.17 1068.15 1333.91C1067.22 1334.63 1066.76 1335.65 1066.76 1336.95C1066.76 1337.99 1067.2 1338.87 1068.08 1339.6C1068.97 1340.32 1070.47 1340.97 1072.59 1341.57C1074.73 1342.17 1076.39 1342.83 1077.58 1343.56C1078.79 1344.27 1079.68 1345.11 1080.26 1346.07C1080.84 1347.03 1081.14 1348.16 1081.14 1349.46C1081.14 1351.54 1080.33 1353.2 1078.71 1354.45C1077.09 1355.7 1074.93 1356.32 1072.22 1356.32C1070.47 1356.32 1068.83 1355.98 1067.3 1355.32C1065.78 1354.64 1064.6 1353.71 1063.77 1352.54C1062.95 1351.37 1062.54 1350.04 1062.54 1348.55H1065.93C1065.93 1350.09 1066.5 1351.32 1067.64 1352.22C1068.78 1353.11 1070.31 1353.56 1072.22 1353.56C1074 1353.56 1075.37 1353.19 1076.32 1352.47C1077.27 1351.74 1077.74 1350.75 1077.74 1349.5C1077.74 1348.24 1077.3 1347.28 1076.42 1346.6C1075.55 1345.91 1073.95 1345.23 1071.64 1344.56ZM1103.5 1330.37V1347.77C1103.48 1350.19 1102.72 1352.16 1101.21 1353.7C1099.71 1355.23 1097.67 1356.09 1095.09 1356.28L1094.2 1356.32C1091.4 1356.32 1089.16 1355.56 1087.5 1354.05C1085.83 1352.54 1084.99 1350.46 1084.97 1347.81V1330.37H1088.31V1347.7C1088.31 1349.56 1088.82 1351 1089.84 1352.03C1090.86 1353.05 1092.31 1353.56 1094.2 1353.56C1096.11 1353.56 1097.57 1353.05 1098.57 1352.03C1099.59 1351.01 1100.1 1349.57 1100.1 1347.72V1330.37H1103.5ZM1116.36 1344.56C1113.47 1343.73 1111.36 1342.71 1110.03 1341.5C1108.72 1340.28 1108.07 1338.78 1108.07 1337C1108.07 1334.98 1108.87 1333.32 1110.47 1332.01C1112.09 1330.68 1114.19 1330.02 1116.77 1330.02C1118.52 1330.02 1120.09 1330.36 1121.46 1331.04C1122.84 1331.72 1123.91 1332.66 1124.66 1333.85C1125.42 1335.05 1125.8 1336.35 1125.8 1337.77H1122.41C1122.41 1336.23 1121.92 1335.01 1120.93 1334.13C1119.95 1333.24 1118.56 1332.8 1116.77 1332.8C1115.1 1332.8 1113.8 1333.17 1112.86 1333.91C1111.94 1334.63 1111.48 1335.65 1111.48 1336.95C1111.48 1337.99 1111.92 1338.87 1112.79 1339.6C1113.68 1340.32 1115.19 1340.97 1117.31 1341.57C1119.44 1342.17 1121.11 1342.83 1122.3 1343.56C1123.51 1344.27 1124.4 1345.11 1124.98 1346.07C1125.56 1347.03 1125.85 1348.16 1125.85 1349.46C1125.85 1351.54 1125.05 1353.2 1123.43 1354.45C1121.81 1355.7 1119.65 1356.32 1116.94 1356.32C1115.18 1356.32 1113.54 1355.98 1112.02 1355.32C1110.5 1354.64 1109.32 1353.71 1108.49 1352.54C1107.67 1351.37 1107.26 1350.04 1107.26 1348.55H1110.65C1110.65 1350.09 1111.22 1351.32 1112.35 1352.22C1113.5 1353.11 1115.03 1353.56 1116.94 1353.56C1118.72 1353.56 1120.09 1353.19 1121.04 1352.47C1121.99 1351.74 1122.46 1350.75 1122.46 1349.5C1122.46 1348.24 1122.02 1347.28 1121.14 1346.6C1120.26 1345.91 1118.67 1345.23 1116.36 1344.56Z" fill="black"/>
<path d="M1054.75 1349.29H1044.03L1041.62 1355.97H1038.14L1047.91 1330.37H1050.87L1060.66 1355.97H1057.19L1054.75 1349.29ZM1045.05 1346.51H1053.75L1049.39 1334.54L1045.05 1346.51ZM1071.64 1344.56C1068.75 1343.73 1066.64 1342.71 1065.32 1341.5C1064 1340.28 1063.35 1338.78 1063.35 1337C1063.35 1334.98 1064.15 1333.32 1065.75 1332.01C1067.37 1330.68 1069.47 1330.02 1072.05 1330.02C1073.81 1330.02 1075.37 1330.36 1076.74 1331.04C1078.12 1331.72 1079.19 1332.66 1079.94 1333.85C1080.7 1335.05 1081.08 1336.35 1081.08 1337.77H1077.69C1077.69 1336.23 1077.2 1335.01 1076.21 1334.13C1075.23 1333.24 1073.84 1332.8 1072.05 1332.8C1070.38 1332.8 1069.08 1333.17 1068.15 1333.91C1067.22 1334.63 1066.76 1335.65 1066.76 1336.95C1066.76 1337.99 1067.2 1338.87 1068.08 1339.6C1068.97 1340.32 1070.47 1340.97 1072.59 1341.57C1074.73 1342.17 1076.39 1342.83 1077.58 1343.56C1078.79 1344.27 1079.68 1345.11 1080.26 1346.07C1080.84 1347.03 1081.14 1348.16 1081.14 1349.46C1081.14 1351.54 1080.33 1353.2 1078.71 1354.45C1077.09 1355.7 1074.93 1356.32 1072.22 1356.32C1070.47 1356.32 1068.83 1355.98 1067.3 1355.32C1065.78 1354.64 1064.6 1353.71 1063.77 1352.54C1062.95 1351.37 1062.54 1350.04 1062.54 1348.55H1065.93C1065.93 1350.09 1066.5 1351.32 1067.64 1352.22C1068.78 1353.11 1070.31 1353.56 1072.22 1353.56C1074 1353.56 1075.37 1353.19 1076.32 1352.47C1077.27 1351.74 1077.74 1350.75 1077.74 1349.5C1077.74 1348.24 1077.3 1347.28 1076.42 1346.6C1075.55 1345.91 1073.95 1345.23 1071.64 1344.56ZM1103.5 1330.37V1347.77C1103.48 1350.19 1102.72 1352.16 1101.21 1353.7C1099.71 1355.23 1097.67 1356.09 1095.09 1356.28L1094.2 1356.32C1091.4 1356.32 1089.16 1355.56 1087.5 1354.05C1085.83 1352.54 1084.99 1350.46 1084.97 1347.81V1330.37H1088.31V1347.7C1088.31 1349.56 1088.82 1351 1089.84 1352.03C1090.86 1353.05 1092.31 1353.56 1094.2 1353.56C1096.11 1353.56 1097.57 1353.05 1098.57 1352.03C1099.59 1351.01 1100.1 1349.57 1100.1 1347.72V1330.37H1103.5ZM1116.36 1344.56C1113.47 1343.73 1111.36 1342.71 1110.03 1341.5C1108.72 1340.28 1108.07 1338.78 1108.07 1337C1108.07 1334.98 1108.87 1333.32 1110.47 1332.01C1112.09 1330.68 1114.19 1330.02 1116.77 1330.02C1118.52 1330.02 1120.09 1330.36 1121.46 1331.04C1122.84 1331.72 1123.91 1332.66 1124.66 1333.85C1125.42 1335.05 1125.8 1336.35 1125.8 1337.77H1122.41C1122.41 1336.23 1121.92 1335.01 1120.93 1334.13C1119.95 1333.24 1118.56 1332.8 1116.77 1332.8C1115.1 1332.8 1113.8 1333.17 1112.86 1333.91C1111.94 1334.63 1111.48 1335.65 1111.48 1336.95C1111.48 1337.99 1111.92 1338.87 1112.79 1339.6C1113.68 1340.32 1115.19 1340.97 1117.31 1341.57C1119.44 1342.17 1121.11 1342.83 1122.3 1343.56C1123.51 1344.27 1124.4 1345.11 1124.98 1346.07C1125.56 1347.03 1125.85 1348.16 1125.85 1349.46C1125.85 1351.54 1125.05 1353.2 1123.43 1354.45C1121.81 1355.7 1119.65 1356.32 1116.94 1356.32C1115.18 1356.32 1113.54 1355.98 1112.02 1355.32C1110.5 1354.64 1109.32 1353.71 1108.49 1352.54C1107.67 1351.37 1107.26 1350.04 1107.26 1348.55H1110.65C1110.65 1350.09 1111.22 1351.32 1112.35 1352.22C1113.5 1353.11 1115.03 1353.56 1116.94 1353.56C1118.72 1353.56 1120.09 1353.19 1121.04 1352.47C1121.99 1351.74 1122.46 1350.75 1122.46 1349.5C1122.46 1348.24 1122.02 1347.28 1121.14 1346.6C1120.26 1345.91 1118.67 1345.23 1116.36 1344.56Z" fill="black" fill-opacity="0.4"/>
<path d="M1054.75 1349.29H1044.03L1041.62 1355.97H1038.14L1047.91 1330.37H1050.87L1060.66 1355.97H1057.19L1054.75 1349.29ZM1045.05 1346.51H1053.75L1049.39 1334.54L1045.05 1346.51ZM1071.64 1344.56C1068.75 1343.73 1066.64 1342.71 1065.32 1341.5C1064 1340.28 1063.35 1338.78 1063.35 1337C1063.35 1334.98 1064.15 1333.32 1065.75 1332.01C1067.37 1330.68 1069.47 1330.02 1072.05 1330.02C1073.81 1330.02 1075.37 1330.36 1076.74 1331.04C1078.12 1331.72 1079.19 1332.66 1079.94 1333.85C1080.7 1335.05 1081.08 1336.35 1081.08 1337.77H1077.69C1077.69 1336.23 1077.2 1335.01 1076.21 1334.13C1075.23 1333.24 1073.84 1332.8 1072.05 1332.8C1070.38 1332.8 1069.08 1333.17 1068.15 1333.91C1067.22 1334.63 1066.76 1335.65 1066.76 1336.95C1066.76 1337.99 1067.2 1338.87 1068.08 1339.6C1068.97 1340.32 1070.47 1340.97 1072.59 1341.57C1074.73 1342.17 1076.39 1342.83 1077.58 1343.56C1078.79 1344.27 1079.68 1345.11 1080.26 1346.07C1080.84 1347.03 1081.14 1348.16 1081.14 1349.46C1081.14 1351.54 1080.33 1353.2 1078.71 1354.45C1077.09 1355.7 1074.93 1356.32 1072.22 1356.32C1070.47 1356.32 1068.83 1355.98 1067.3 1355.32C1065.78 1354.64 1064.6 1353.71 1063.77 1352.54C1062.95 1351.37 1062.54 1350.04 1062.54 1348.55H1065.93C1065.93 1350.09 1066.5 1351.32 1067.64 1352.22C1068.78 1353.11 1070.31 1353.56 1072.22 1353.56C1074 1353.56 1075.37 1353.19 1076.32 1352.47C1077.27 1351.74 1077.74 1350.75 1077.74 1349.5C1077.74 1348.24 1077.3 1347.28 1076.42 1346.6C1075.55 1345.91 1073.95 1345.23 1071.64 1344.56ZM1103.5 1330.37V1347.77C1103.48 1350.19 1102.72 1352.16 1101.21 1353.7C1099.71 1355.23 1097.67 1356.09 1095.09 1356.28L1094.2 1356.32C1091.4 1356.32 1089.16 1355.56 1087.5 1354.05C1085.83 1352.54 1084.99 1350.46 1084.97 1347.81V1330.37H1088.31V1347.7C1088.31 1349.56 1088.82 1351 1089.84 1352.03C1090.86 1353.05 1092.31 1353.56 1094.2 1353.56C1096.11 1353.56 1097.57 1353.05 1098.57 1352.03C1099.59 1351.01 1100.1 1349.57 1100.1 1347.72V1330.37H1103.5ZM1116.36 1344.56C1113.47 1343.73 1111.36 1342.71 1110.03 1341.5C1108.72 1340.28 1108.07 1338.78 1108.07 1337C1108.07 1334.98 1108.87 1333.32 1110.47 1332.01C1112.09 1330.68 1114.19 1330.02 1116.77 1330.02C1118.52 1330.02 1120.09 1330.36 1121.46 1331.04C1122.84 1331.72 1123.91 1332.66 1124.66 1333.85C1125.42 1335.05 1125.8 1336.35 1125.8 1337.77H1122.41C1122.41 1336.23 1121.92 1335.01 1120.93 1334.13C1119.95 1333.24 1118.56 1332.8 1116.77 1332.8C1115.1 1332.8 1113.8 1333.17 1112.86 1333.91C1111.94 1334.63 1111.48 1335.65 1111.48 1336.95C1111.48 1337.99 1111.92 1338.87 1112.79 1339.6C1113.68 1340.32 1115.19 1340.97 1117.31 1341.57C1119.44 1342.17 1121.11 1342.83 1122.3 1343.56C1123.51 1344.27 1124.4 1345.11 1124.98 1346.07C1125.56 1347.03 1125.85 1348.16 1125.85 1349.46C1125.85 1351.54 1125.05 1353.2 1123.43 1354.45C1121.81 1355.7 1119.65 1356.32 1116.94 1356.32C1115.18 1356.32 1113.54 1355.98 1112.02 1355.32C1110.5 1354.64 1109.32 1353.71 1108.49 1352.54C1107.67 1351.37 1107.26 1350.04 1107.26 1348.55H1110.65C1110.65 1350.09 1111.22 1351.32 1112.35 1352.22C1113.5 1353.11 1115.03 1353.56 1116.94 1353.56C1118.72 1353.56 1120.09 1353.19 1121.04 1352.47C1121.99 1351.74 1122.46 1350.75 1122.46 1349.5C1122.46 1348.24 1122.02 1347.28 1121.14 1346.6C1120.26 1345.91 1118.67 1345.23 1116.36 1344.56Z" fill="#1A16D5" fill-opacity="0.3"/>
<path d="M1054.75 1349.29H1044.03L1041.62 1355.97H1038.14L1047.91 1330.37H1050.87L1060.66 1355.97H1057.19L1054.75 1349.29ZM1045.05 1346.51H1053.75L1049.39 1334.54L1045.05 1346.51ZM1071.64 1344.56C1068.75 1343.73 1066.64 1342.71 1065.32 1341.5C1064 1340.28 1063.35 1338.78 1063.35 1337C1063.35 1334.98 1064.15 1333.32 1065.75 1332.01C1067.37 1330.68 1069.47 1330.02 1072.05 1330.02C1073.81 1330.02 1075.37 1330.36 1076.74 1331.04C1078.12 1331.72 1079.19 1332.66 1079.94 1333.85C1080.7 1335.05 1081.08 1336.35 1081.08 1337.77H1077.69C1077.69 1336.23 1077.2 1335.01 1076.21 1334.13C1075.23 1333.24 1073.84 1332.8 1072.05 1332.8C1070.38 1332.8 1069.08 1333.17 1068.15 1333.91C1067.22 1334.63 1066.76 1335.65 1066.76 1336.95C1066.76 1337.99 1067.2 1338.87 1068.08 1339.6C1068.97 1340.32 1070.47 1340.97 1072.59 1341.57C1074.73 1342.17 1076.39 1342.83 1077.58 1343.56C1078.79 1344.27 1079.68 1345.11 1080.26 1346.07C1080.84 1347.03 1081.14 1348.16 1081.14 1349.46C1081.14 1351.54 1080.33 1353.2 1078.71 1354.45C1077.09 1355.7 1074.93 1356.32 1072.22 1356.32C1070.47 1356.32 1068.83 1355.98 1067.3 1355.32C1065.78 1354.64 1064.6 1353.71 1063.77 1352.54C1062.95 1351.37 1062.54 1350.04 1062.54 1348.55H1065.93C1065.93 1350.09 1066.5 1351.32 1067.64 1352.22C1068.78 1353.11 1070.31 1353.56 1072.22 1353.56C1074 1353.56 1075.37 1353.19 1076.32 1352.47C1077.27 1351.74 1077.74 1350.75 1077.74 1349.5C1077.74 1348.24 1077.3 1347.28 1076.42 1346.6C1075.55 1345.91 1073.95 1345.23 1071.64 1344.56ZM1103.5 1330.37V1347.77C1103.48 1350.19 1102.72 1352.16 1101.21 1353.7C1099.71 1355.23 1097.67 1356.09 1095.09 1356.28L1094.2 1356.32C1091.4 1356.32 1089.16 1355.56 1087.5 1354.05C1085.83 1352.54 1084.99 1350.46 1084.97 1347.81V1330.37H1088.31V1347.7C1088.31 1349.56 1088.82 1351 1089.84 1352.03C1090.86 1353.05 1092.31 1353.56 1094.2 1353.56C1096.11 1353.56 1097.57 1353.05 1098.57 1352.03C1099.59 1351.01 1100.1 1349.57 1100.1 1347.72V1330.37H1103.5ZM1116.36 1344.56C1113.47 1343.73 1111.36 1342.71 1110.03 1341.5C1108.72 1340.28 1108.07 1338.78 1108.07 1337C1108.07 1334.98 1108.87 1333.32 1110.47 1332.01C1112.09 1330.68 1114.19 1330.02 1116.77 1330.02C1118.52 1330.02 1120.09 1330.36 1121.46 1331.04C1122.84 1331.72 1123.91 1332.66 1124.66 1333.85C1125.42 1335.05 1125.8 1336.35 1125.8 1337.77H1122.41C1122.41 1336.23 1121.92 1335.01 1120.93 1334.13C1119.95 1333.24 1118.56 1332.8 1116.77 1332.8C1115.1 1332.8 1113.8 1333.17 1112.86 1333.91C1111.94 1334.63 1111.48 1335.65 1111.48 1336.95C1111.48 1337.99 1111.92 1338.87 1112.79 1339.6C1113.68 1340.32 1115.19 1340.97 1117.31 1341.57C1119.44 1342.17 1121.11 1342.83 1122.3 1343.56C1123.51 1344.27 1124.4 1345.11 1124.98 1346.07C1125.56 1347.03 1125.85 1348.16 1125.85 1349.46C1125.85 1351.54 1125.05 1353.2 1123.43 1354.45C1121.81 1355.7 1119.65 1356.32 1116.94 1356.32C1115.18 1356.32 1113.54 1355.98 1112.02 1355.32C1110.5 1354.64 1109.32 1353.71 1108.49 1352.54C1107.67 1351.37 1107.26 1350.04 1107.26 1348.55H1110.65C1110.65 1350.09 1111.22 1351.32 1112.35 1352.22C1113.5 1353.11 1115.03 1353.56 1116.94 1353.56C1118.72 1353.56 1120.09 1353.19 1121.04 1352.47C1121.99 1351.74 1122.46 1350.75 1122.46 1349.5C1122.46 1348.24 1122.02 1347.28 1121.14 1346.6C1120.26 1345.91 1118.67 1345.23 1116.36 1344.56Z" fill="#DD1414" fill-opacity="0.2"/>
<path d="M1054.75 1349.29L1055.69 1348.94L1055.45 1348.29H1054.75V1349.29ZM1044.03 1349.29V1348.29H1043.33L1043.09 1348.95L1044.03 1349.29ZM1041.62 1355.97V1356.97H1042.32L1042.56 1356.3L1041.62 1355.97ZM1038.14 1355.97L1037.21 1355.61L1036.69 1356.97H1038.14V1355.97ZM1047.91 1330.37V1329.37H1047.22L1046.98 1330.02L1047.91 1330.37ZM1050.87 1330.37L1051.8 1330.01L1051.55 1329.37H1050.87V1330.37ZM1060.66 1355.97V1356.97H1062.11L1061.59 1355.61L1060.66 1355.97ZM1057.19 1355.97L1056.26 1356.31L1056.5 1356.97H1057.19V1355.97ZM1045.05 1346.51L1044.11 1346.17L1043.62 1347.51H1045.05V1346.51ZM1053.75 1346.51V1347.51H1055.18L1054.69 1346.17L1053.75 1346.51ZM1049.39 1334.54L1050.33 1334.2L1049.39 1331.61L1048.45 1334.2L1049.39 1334.54ZM1054.75 1348.29H1044.03V1350.29H1054.75V1348.29ZM1043.09 1348.95L1040.68 1355.63L1042.56 1356.3L1044.97 1349.63L1043.09 1348.95ZM1041.62 1354.97H1038.14V1356.97H1041.62V1354.97ZM1039.07 1356.32L1048.85 1330.73L1046.98 1330.02L1037.21 1355.61L1039.07 1356.32ZM1047.91 1331.37H1050.87V1329.37H1047.91V1331.37ZM1049.93 1330.73L1059.72 1356.32L1061.59 1355.61L1051.8 1330.01L1049.93 1330.73ZM1060.66 1354.97H1057.19V1356.97H1060.66V1354.97ZM1058.13 1355.62L1055.69 1348.94L1053.81 1349.63L1056.26 1356.31L1058.13 1355.62ZM1045.05 1347.51H1053.75V1345.51H1045.05V1347.51ZM1054.69 1346.17L1050.33 1334.2L1048.45 1334.88L1052.81 1346.85L1054.69 1346.17ZM1048.45 1334.2L1044.11 1346.17L1045.99 1346.85L1050.33 1334.88L1048.45 1334.2ZM1071.64 1344.56L1071.92 1343.6L1071.92 1343.6L1071.64 1344.56ZM1065.32 1341.5L1064.63 1342.23L1064.64 1342.24L1065.32 1341.5ZM1065.75 1332.01L1066.39 1332.78L1066.39 1332.78L1065.75 1332.01ZM1076.74 1331.04L1076.3 1331.94L1076.3 1331.94L1076.74 1331.04ZM1079.94 1333.85L1079.09 1334.38L1079.1 1334.39L1079.94 1333.85ZM1081.08 1337.77V1338.77H1082.08V1337.77H1081.08ZM1077.69 1337.77H1076.69V1338.77H1077.69V1337.77ZM1076.21 1334.13L1075.54 1334.88L1075.55 1334.88L1076.21 1334.13ZM1068.15 1333.91L1068.76 1334.69L1068.76 1334.69L1068.15 1333.91ZM1068.08 1339.6L1067.44 1340.37L1067.44 1340.38L1067.45 1340.38L1068.08 1339.6ZM1072.59 1341.57L1072.32 1342.53L1072.32 1342.53L1072.59 1341.57ZM1077.58 1343.56L1077.07 1344.41L1077.08 1344.42L1077.58 1343.56ZM1080.26 1346.07L1079.4 1346.58L1079.4 1346.59L1080.26 1346.07ZM1078.71 1354.45L1079.32 1355.25L1079.32 1355.24L1078.71 1354.45ZM1067.3 1355.32L1066.89 1356.23L1066.9 1356.23L1067.3 1355.32ZM1063.77 1352.54L1062.95 1353.11L1062.95 1353.12L1063.77 1352.54ZM1062.54 1348.55V1347.55H1061.54V1348.55H1062.54ZM1065.93 1348.55H1066.93V1347.55H1065.93V1348.55ZM1067.64 1352.22L1067.01 1353L1067.02 1353.01L1067.64 1352.22ZM1076.42 1346.6L1075.81 1347.38L1075.81 1347.39L1076.42 1346.6ZM1071.92 1343.6C1069.09 1342.78 1067.15 1341.82 1065.99 1340.76L1064.64 1342.24C1066.13 1343.6 1068.41 1344.67 1071.37 1345.52L1071.92 1343.6ZM1066 1340.77C1064.89 1339.74 1064.35 1338.5 1064.35 1337H1062.35C1062.35 1339.06 1063.12 1340.82 1064.63 1342.23L1066 1340.77ZM1064.35 1337C1064.35 1335.29 1065.01 1333.91 1066.39 1332.78L1065.12 1331.23C1063.29 1332.73 1062.35 1334.67 1062.35 1337H1064.35ZM1066.39 1332.78C1067.79 1331.63 1069.65 1331.02 1072.05 1331.02V1329.02C1069.29 1329.02 1066.96 1329.73 1065.12 1331.23L1066.39 1332.78ZM1072.05 1331.02C1073.67 1331.02 1075.08 1331.33 1076.3 1331.94L1077.19 1330.14C1075.66 1329.39 1073.94 1329.02 1072.05 1329.02V1331.02ZM1076.3 1331.94C1077.53 1332.54 1078.45 1333.36 1079.09 1334.38L1080.79 1333.32C1079.93 1331.95 1078.72 1330.9 1077.18 1330.14L1076.3 1331.94ZM1079.1 1334.39C1079.76 1335.42 1080.08 1336.54 1080.08 1337.77H1082.08C1082.08 1336.16 1081.65 1334.67 1080.78 1333.31L1079.1 1334.39ZM1081.08 1336.77H1077.69V1338.77H1081.08V1336.77ZM1078.69 1337.77C1078.69 1335.99 1078.11 1334.49 1076.88 1333.39L1075.55 1334.88C1076.28 1335.54 1076.69 1336.46 1076.69 1337.77H1078.69ZM1076.88 1333.39C1075.66 1332.28 1074 1331.8 1072.05 1331.8V1333.8C1073.68 1333.8 1074.8 1334.2 1075.54 1334.88L1076.88 1333.39ZM1072.05 1331.8C1070.25 1331.8 1068.7 1332.2 1067.53 1333.12L1068.76 1334.69C1069.47 1334.14 1070.52 1333.8 1072.05 1333.8V1331.8ZM1067.53 1333.12C1066.33 1334.06 1065.76 1335.38 1065.76 1336.95H1067.76C1067.76 1335.92 1068.11 1335.21 1068.76 1334.69L1067.53 1333.12ZM1065.76 1336.95C1065.76 1338.32 1066.35 1339.47 1067.44 1340.37L1068.71 1338.83C1068.04 1338.27 1067.76 1337.66 1067.76 1336.95H1065.76ZM1067.45 1340.38C1068.5 1341.23 1070.17 1341.93 1072.32 1342.53L1072.86 1340.61C1070.77 1340.02 1069.43 1339.41 1068.7 1338.82L1067.45 1340.38ZM1072.32 1342.53C1074.41 1343.12 1075.98 1343.75 1077.07 1344.41L1078.1 1342.7C1076.8 1341.91 1075.04 1341.22 1072.86 1340.61L1072.32 1342.53ZM1077.08 1344.42C1078.17 1345.07 1078.93 1345.8 1079.4 1346.58L1081.12 1345.56C1080.44 1344.42 1079.41 1343.47 1078.09 1342.7L1077.08 1344.42ZM1079.4 1346.59C1079.88 1347.37 1080.14 1348.32 1080.14 1349.46H1082.14C1082.14 1348.01 1081.81 1346.69 1081.11 1345.55L1079.4 1346.59ZM1080.14 1349.46C1080.14 1351.23 1079.47 1352.6 1078.1 1353.66L1079.32 1355.24C1081.19 1353.8 1082.14 1351.84 1082.14 1349.46H1080.14ZM1078.1 1353.66C1076.71 1354.73 1074.78 1355.32 1072.22 1355.32V1357.32C1075.08 1357.32 1077.48 1356.66 1079.32 1355.25L1078.1 1353.66ZM1072.22 1355.32C1070.6 1355.32 1069.09 1355.01 1067.7 1354.4L1066.9 1356.23C1068.56 1356.96 1070.34 1357.32 1072.22 1357.32V1355.32ZM1067.71 1354.4C1066.32 1353.78 1065.3 1352.96 1064.58 1351.96L1062.95 1353.12C1063.9 1354.46 1065.23 1355.49 1066.89 1356.23L1067.71 1354.4ZM1064.59 1351.96C1063.89 1350.97 1063.54 1349.84 1063.54 1348.55H1061.54C1061.54 1350.23 1062.01 1351.76 1062.95 1353.11L1064.59 1351.96ZM1062.54 1349.55H1065.93V1347.55H1062.54V1349.55ZM1064.93 1348.55C1064.93 1350.38 1065.62 1351.9 1067.01 1353L1068.26 1351.44C1067.38 1350.74 1066.93 1349.81 1066.93 1348.55H1064.93ZM1067.02 1353.01C1068.39 1354.08 1070.16 1354.56 1072.22 1354.56V1352.56C1070.47 1352.56 1069.17 1352.15 1068.25 1351.43L1067.02 1353.01ZM1072.22 1354.56C1074.12 1354.56 1075.74 1354.17 1076.93 1353.26L1075.71 1351.67C1075 1352.22 1073.89 1352.56 1072.22 1352.56V1354.56ZM1076.93 1353.26C1078.14 1352.34 1078.74 1351.04 1078.74 1349.5H1076.74C1076.74 1350.46 1076.4 1351.15 1075.71 1351.67L1076.93 1353.26ZM1078.74 1349.5C1078.74 1347.98 1078.19 1346.7 1077.04 1345.81L1075.81 1347.39C1076.41 1347.85 1076.74 1348.51 1076.74 1349.5H1078.74ZM1077.04 1345.81C1076 1344.99 1074.24 1344.27 1071.92 1343.6L1071.37 1345.52C1073.66 1346.18 1075.09 1346.82 1075.81 1347.38L1077.04 1345.81ZM1103.5 1330.37H1104.5V1329.37H1103.5V1330.37ZM1103.5 1347.77L1104.5 1347.78V1347.77H1103.5ZM1101.21 1353.7L1100.5 1353L1100.49 1353L1101.21 1353.7ZM1095.09 1356.28L1095.13 1357.28L1095.15 1357.28L1095.17 1357.28L1095.09 1356.28ZM1094.2 1356.32V1357.32H1094.22L1094.24 1357.32L1094.2 1356.32ZM1084.97 1347.81H1083.97L1083.97 1347.82L1084.97 1347.81ZM1084.97 1330.37V1329.37H1083.97V1330.37H1084.97ZM1088.31 1330.37H1089.31V1329.37H1088.31V1330.37ZM1089.84 1352.03L1089.13 1352.73L1089.13 1352.74L1089.84 1352.03ZM1098.57 1352.03L1097.87 1351.32L1097.86 1351.33L1098.57 1352.03ZM1100.1 1330.37V1329.37H1099.1V1330.37H1100.1ZM1102.5 1330.37V1347.77H1104.5V1330.37H1102.5ZM1102.5 1347.77C1102.48 1349.96 1101.8 1351.67 1100.5 1353L1101.92 1354.4C1103.64 1352.66 1104.48 1350.42 1104.5 1347.78L1102.5 1347.77ZM1100.49 1353C1099.2 1354.33 1097.41 1355.11 1095.02 1355.28L1095.17 1357.28C1097.93 1357.08 1100.22 1356.14 1101.93 1354.4L1100.49 1353ZM1095.05 1355.28L1094.16 1355.32L1094.24 1357.32L1095.13 1357.28L1095.05 1355.28ZM1094.2 1355.32C1091.58 1355.32 1089.61 1354.62 1088.17 1353.31L1086.83 1354.79C1088.72 1356.51 1091.21 1357.32 1094.2 1357.32V1355.32ZM1088.17 1353.31C1086.75 1352.02 1085.99 1350.22 1085.97 1347.8L1083.97 1347.82C1083.99 1350.69 1084.92 1353.06 1086.83 1354.79L1088.17 1353.31ZM1085.97 1347.81V1330.37H1083.97V1347.81H1085.97ZM1084.97 1331.37H1088.31V1329.37H1084.97V1331.37ZM1087.31 1330.37V1347.7H1089.31V1330.37H1087.31ZM1087.31 1347.7C1087.31 1349.74 1087.87 1351.46 1089.13 1352.73L1090.55 1351.33C1089.76 1350.53 1089.31 1349.37 1089.31 1347.7H1087.31ZM1089.13 1352.74C1090.39 1353.99 1092.13 1354.56 1094.2 1354.56V1352.56C1092.49 1352.56 1091.32 1352.1 1090.54 1351.32L1089.13 1352.74ZM1094.2 1354.56C1096.28 1354.56 1098.03 1354 1099.28 1352.73L1097.86 1351.33C1097.1 1352.1 1095.93 1352.56 1094.2 1352.56V1354.56ZM1099.28 1352.74C1100.54 1351.48 1101.1 1349.76 1101.1 1347.72H1099.1C1099.1 1349.39 1098.65 1350.54 1097.87 1351.32L1099.28 1352.74ZM1101.1 1347.72V1330.37H1099.1V1347.72H1101.1ZM1100.1 1331.37H1103.5V1329.37H1100.1V1331.37ZM1116.36 1344.56L1116.64 1343.6L1116.64 1343.6L1116.36 1344.56ZM1110.03 1341.5L1109.35 1342.23L1109.36 1342.24L1110.03 1341.5ZM1110.47 1332.01L1111.11 1332.78L1111.11 1332.78L1110.47 1332.01ZM1121.46 1331.04L1121.02 1331.94L1121.02 1331.94L1121.46 1331.04ZM1124.66 1333.85L1123.81 1334.38L1123.82 1334.39L1124.66 1333.85ZM1125.8 1337.77V1338.77H1126.8V1337.77H1125.8ZM1122.41 1337.77H1121.41V1338.77H1122.41V1337.77ZM1120.93 1334.13L1120.26 1334.88L1120.27 1334.88L1120.93 1334.13ZM1112.86 1333.91L1113.48 1334.69L1113.48 1334.69L1112.86 1333.91ZM1112.79 1339.6L1112.16 1340.37L1112.16 1340.38L1112.17 1340.38L1112.79 1339.6ZM1117.31 1341.57L1117.04 1342.53L1117.04 1342.53L1117.31 1341.57ZM1122.3 1343.56L1121.78 1344.41L1121.79 1344.42L1122.3 1343.56ZM1124.98 1346.07L1124.12 1346.58L1124.12 1346.59L1124.98 1346.07ZM1123.43 1354.45L1124.04 1355.25L1124.04 1355.24L1123.43 1354.45ZM1112.02 1355.32L1111.61 1356.23L1111.62 1356.23L1112.02 1355.32ZM1108.49 1352.54L1107.67 1353.11L1107.67 1353.12L1108.49 1352.54ZM1107.26 1348.55V1347.55H1106.26V1348.55H1107.26ZM1110.65 1348.55H1111.65V1347.55H1110.65V1348.55ZM1112.35 1352.22L1111.73 1353L1111.74 1353.01L1112.35 1352.22ZM1121.14 1346.6L1120.53 1347.38L1120.53 1347.39L1121.14 1346.6ZM1116.64 1343.6C1113.8 1342.78 1111.87 1341.82 1110.71 1340.76L1109.36 1342.24C1110.85 1343.6 1113.13 1344.67 1116.09 1345.52L1116.64 1343.6ZM1110.71 1340.77C1109.6 1339.74 1109.07 1338.5 1109.07 1337H1107.07C1107.07 1339.06 1107.84 1340.82 1109.35 1342.23L1110.71 1340.77ZM1109.07 1337C1109.07 1335.29 1109.73 1333.91 1111.11 1332.78L1109.84 1331.23C1108.01 1332.73 1107.07 1334.67 1107.07 1337H1109.07ZM1111.11 1332.78C1112.51 1331.63 1114.36 1331.02 1116.77 1331.02V1329.02C1114.01 1329.02 1111.67 1329.73 1109.84 1331.23L1111.11 1332.78ZM1116.77 1331.02C1118.39 1331.02 1119.8 1331.33 1121.02 1331.94L1121.9 1330.14C1120.38 1329.39 1118.66 1329.02 1116.77 1329.02V1331.02ZM1121.02 1331.94C1122.25 1332.54 1123.17 1333.36 1123.81 1334.38L1125.51 1333.32C1124.65 1331.95 1123.43 1330.9 1121.9 1330.14L1121.02 1331.94ZM1123.82 1334.39C1124.48 1335.42 1124.8 1336.54 1124.8 1337.77H1126.8C1126.8 1336.16 1126.37 1334.67 1125.5 1333.31L1123.82 1334.39ZM1125.8 1336.77H1122.41V1338.77H1125.8V1336.77ZM1123.41 1337.77C1123.41 1335.99 1122.83 1334.49 1121.6 1333.39L1120.27 1334.88C1121 1335.54 1121.41 1336.46 1121.41 1337.77H1123.41ZM1121.6 1333.39C1120.38 1332.28 1118.72 1331.8 1116.77 1331.8V1333.8C1118.4 1333.8 1119.52 1334.2 1120.26 1334.88L1121.6 1333.39ZM1116.77 1331.8C1114.97 1331.8 1113.42 1332.2 1112.25 1333.12L1113.48 1334.69C1114.19 1334.14 1115.24 1333.8 1116.77 1333.8V1331.8ZM1112.25 1333.12C1111.05 1334.06 1110.48 1335.38 1110.48 1336.95H1112.48C1112.48 1335.92 1112.83 1335.21 1113.48 1334.69L1112.25 1333.12ZM1110.48 1336.95C1110.48 1338.32 1111.07 1339.47 1112.16 1340.37L1113.43 1338.83C1112.76 1338.27 1112.48 1337.66 1112.48 1336.95H1110.48ZM1112.17 1340.38C1113.22 1341.23 1114.89 1341.93 1117.04 1342.53L1117.58 1340.61C1115.49 1340.02 1114.15 1339.41 1113.42 1338.82L1112.17 1340.38ZM1117.04 1342.53C1119.13 1343.12 1120.7 1343.75 1121.78 1344.41L1122.82 1342.7C1121.52 1341.91 1119.76 1341.22 1117.58 1340.61L1117.04 1342.53ZM1121.79 1344.42C1122.89 1345.07 1123.65 1345.8 1124.12 1346.58L1125.83 1345.56C1125.16 1344.42 1124.13 1343.47 1122.81 1342.7L1121.79 1344.42ZM1124.12 1346.59C1124.6 1347.37 1124.85 1348.32 1124.85 1349.46H1126.85C1126.85 1348.01 1126.53 1346.69 1125.83 1345.55L1124.12 1346.59ZM1124.85 1349.46C1124.85 1351.23 1124.18 1352.6 1122.82 1353.66L1124.04 1355.24C1125.91 1353.8 1126.85 1351.84 1126.85 1349.46H1124.85ZM1122.82 1353.66C1121.43 1354.73 1119.5 1355.32 1116.94 1355.32V1357.32C1119.8 1357.32 1122.2 1356.66 1124.04 1355.25L1122.82 1353.66ZM1116.94 1355.32C1115.31 1355.32 1113.81 1355.01 1112.42 1354.4L1111.62 1356.23C1113.28 1356.96 1115.05 1357.32 1116.94 1357.32V1355.32ZM1112.43 1354.4C1111.04 1353.78 1110.02 1352.96 1109.3 1351.96L1107.67 1353.12C1108.62 1354.46 1109.95 1355.49 1111.61 1356.23L1112.43 1354.4ZM1109.31 1351.96C1108.61 1350.97 1108.26 1349.84 1108.26 1348.55H1106.26C1106.26 1350.23 1106.73 1351.76 1107.67 1353.11L1109.31 1351.96ZM1107.26 1349.55H1110.65V1347.55H1107.26V1349.55ZM1109.65 1348.55C1109.65 1350.38 1110.34 1351.9 1111.73 1353L1112.98 1351.44C1112.1 1350.74 1111.65 1349.81 1111.65 1348.55H1109.65ZM1111.74 1353.01C1113.11 1354.08 1114.88 1354.56 1116.94 1354.56V1352.56C1115.18 1352.56 1113.89 1352.15 1112.97 1351.43L1111.74 1353.01ZM1116.94 1354.56C1118.84 1354.56 1120.46 1354.17 1121.65 1353.26L1120.43 1351.67C1119.72 1352.22 1118.61 1352.56 1116.94 1352.56V1354.56ZM1121.65 1353.26C1122.86 1352.34 1123.46 1351.04 1123.46 1349.5H1121.46C1121.46 1350.46 1121.12 1351.15 1120.43 1351.67L1121.65 1353.26ZM1123.46 1349.5C1123.46 1347.98 1122.91 1346.7 1121.76 1345.81L1120.53 1347.39C1121.13 1347.85 1121.46 1348.51 1121.46 1349.5H1123.46ZM1121.76 1345.81C1120.72 1344.99 1118.96 1344.27 1116.64 1343.6L1116.08 1345.52C1118.38 1346.18 1119.81 1346.82 1120.53 1347.38L1121.76 1345.81Z" fill="black"/>
</g>
</g>
<path id="face" d="M1256 708.547C1256 805.228 1184.03 883.53 1095.33 883.53C1006.63 883.53 934.651 805.228 934.651 708.547C934.651 611.865 1006.63 533.563 1095.33 533.563C1184.03 533.563 1256 611.865 1256 708.547Z" fill="#FEB8B8" stroke="black"/>
<path id="hair" d="M1263.32 680.646C1250.18 657.818 1235.63 638.997 1221.1 620.205L1221.1 620.199C1206.3 601.059 1191.52 581.948 1178.24 558.626L1177.32 559.009C1177.36 559.155 1177.31 559.476 1176.62 560.011C1175.97 560.514 1174.91 561.07 1173.46 561.668C1170.61 562.839 1166.36 564.12 1161.01 565.468L1140.39 546.76L1139.34 545.814L1139.56 547.206L1142.96 569.465C1107.34 576.607 1052.02 584.378 1014.45 587.961L1011.11 558.82L1010.15 558.693L998.076 589.359C990.34 590.396 982.513 590.341 974.79 589.195L974.361 589.131L974.237 589.546C969.238 606.27 963.704 622.479 958.168 638.699L958.157 638.73C952.735 654.613 947.311 670.506 942.388 686.885C906.694 628.498 913.047 548.312 949.834 490.57C964.621 468.078 983.526 449.168 1005.36 435.031C1027.02 421 1051.1 411.972 1076.1 408.504V423.351V424.545L1076.95 423.707L1093.88 407.026C1104.35 406.634 1114.82 407.291 1125.18 408.988V428.977V430.013L1125.99 429.368L1145.56 413.814C1189.41 427.951 1226.93 459.219 1250.93 501.638C1282.58 557.64 1274.54 608.972 1265.1 669.247C1264.51 673.011 1263.91 676.809 1263.32 680.646Z" fill="#2F2E41" stroke="black"/>
<g id="eyes">
<path id="gyj" d="M1063.66 647.294C1063.66 657.888 1052.76 666.661 1039.07 666.661C1025.37 666.661 1014.48 657.888 1014.48 647.294C1014.48 636.701 1025.37 627.928 1039.07 627.928C1052.76 627.928 1063.66 636.701 1063.66 647.294Z" fill="#3F3D56" stroke="black"/>
<path id="njk" d="M1191.38 648.536C1191.38 659.882 1181.43 669.144 1169.08 669.144C1156.72 669.144 1146.77 659.882 1146.77 648.536C1146.77 637.19 1156.72 627.928 1169.08 627.928C1181.43 627.928 1191.38 637.19 1191.38 648.536Z" fill="#3F3D56" stroke="black"/>
</g>
<g id="headphone">
<path id="Vector_11" d="M893.597 655.314C893.597 625.221 914.169 600.931 939.489 600.615V737.614C914.169 737.298 893.597 713.008 893.597 682.915V655.314Z" fill="#6C63FF" stroke="black"/>
<path id="Vector_12" d="M1256.25 600.615C1281.57 600.931 1302.14 625.221 1302.14 655.314V682.915C1302.14 713.008 1281.57 737.298 1256.25 737.614V600.615Z" fill="#6C63FF" stroke="black"/>
<path id="Vector_13" d="M898.159 626.226C898.389 498.326 986.834 394.5 1095.35 394.5C1203.87 394.5 1292.31 498.326 1292.54 626.226H1285.31C1285.08 503.28 1200.03 403.197 1095.35 403.197C990.678 403.197 905.626 503.28 905.396 626.226H898.159Z" fill="#6C63FF" stroke="black"/>
</g>
<g id="clock">
<path id="klo" d="M569.177 532.714C569.177 609.035 505.686 670.927 427.338 670.927C348.991 670.927 285.5 609.035 285.5 532.714C285.5 456.392 348.991 394.5 427.338 394.5C505.686 394.5 569.177 456.392 569.177 532.714Z" fill="#2F2E41" stroke="#1F3DDC"/>
<g id="ju" filter="url(#filter0_f)">
<line x1="427.5" y1="546" x2="427.5" y2="425" stroke="#02FFFF"/>
</g>
<g id="ko" filter="url(#filter1_f)">
<line x1="426.629" y1="545.665" x2="481.629" y2="484.665" stroke="#02FFFF"/>
</g>
</g>
</g>
</g>
<defs>
<filter id="filter0_f" x="423" y="421" width="9" height="129" filterUnits="userSpaceOnUse" color-interpolation-filters="sRGB">
<feFlood flood-opacity="0" result="BackgroundImageFix"/>
<feBlend mode="normal" in="SourceGraphic" in2="BackgroundImageFix" result="shape"/>
<feGaussianBlur stdDeviation="2" result="effect1_foregroundBlur"/>
</filter>
<filter id="filter1_f" x="422.257" y="480.33" width="63.7427" height="69.6696" filterUnits="userSpaceOnUse" color-interpolation-filters="sRGB">
<feFlood flood-opacity="0" result="BackgroundImageFix"/>
<feBlend mode="normal" in="SourceGraphic" in2="BackgroundImageFix" result="shape"/>
<feGaussianBlur stdDeviation="2" result="effect1_foregroundBlur"/>
</filter>
</defs>
</svg>
